<svg xmlns="http://www.w3.org/2000/svg" width="142" height="142" viewBox="0 0 142 142" version="1.1"><path d="M 22 10.605 C 20.625 11.448, 20.400 11.770, 21.500 11.319 C 22.600 10.869, 40.150 10.264, 60.500 9.976 L 97.500 9.452 61 9.261 C 29.722 9.098, 24.142 9.290, 22 10.605 M 100.451 11.677 C 108.014 15.771, 109.330 21.162, 108.830 46 C 108.517 61.556, 108.164 65.057, 106.615 68 C 102.247 76.298, 97.039 78, 76.010 78 C 68.369 78, 61.909 78.338, 61.653 78.750 C 60.993 79.812, 91.747 79.093, 96.119 77.944 C 100.992 76.664, 104.603 73.658, 107.278 68.655 C 109.312 64.851, 109.528 62.875, 109.826 45.268 C 110.213 22.471, 109.126 16.724, 103.639 12.538 C 101.809 11.142, 99.679 10.018, 98.906 10.040 C 98.133 10.062, 98.828 10.799, 100.451 11.677 M 96.333 12.667 C 96.700 13.033, 97.300 13.033, 97.667 12.667 C 98.033 12.300, 97.733 12, 97 12 C 96.267 12, 95.967 12.300, 96.333 12.667 M 11.685 19.534 C 10.748 21.500, 10.058 25.161, 10.131 27.784 L 10.262 32.500 10.996 26.781 C 11.399 23.636, 12.476 19.923, 13.388 18.531 C 14.300 17.139, 14.669 16, 14.208 16 C 13.747 16, 12.612 17.590, 11.685 19.534 M 118.282 24.092 C 123.650 25.355, 127.734 27.659, 129.220 30.260 C 129.924 31.492, 130.784 36.325, 131.132 41 L 131.764 49.500 131.632 40.354 C 131.522 32.740, 131.165 30.831, 129.500 28.962 C 126.991 26.146, 120.297 23.019, 117 23.122 C 115.154 23.180, 115.489 23.434, 118.282 24.092 M 114.692 32.639 C 114.983 33.397, 116.329 34.295, 117.683 34.635 C 119.046 34.977, 120.573 36.376, 121.101 37.765 C 122.247 40.781, 123.163 40.338, 122.334 37.169 C 121.996 35.878, 120.136 34.146, 117.955 33.092 C 115.105 31.715, 114.294 31.603, 114.692 32.639 M 33.881 37.007 C 30.976 38.704, 29.632 43.461, 31.160 46.639 C 34.411 53.405, 44.157 51.312, 44.807 43.708 C 45.321 37.692, 39.168 33.918, 33.881 37.007 M 56 36.729 C 54.399 37.338, 53.040 38.974, 53.015 40.323 C 53.007 40.775, 54.186 40.212, 55.635 39.073 C 58.986 36.436, 61.448 36.448, 64.113 39.113 C 65.738 40.738, 66.098 42.011, 65.672 44.635 C 65.345 46.649, 65.504 47.807, 66.059 47.463 C 66.577 47.144, 67 45.351, 67 43.480 C 67 37.843, 61.669 34.571, 56 36.729 M 76.655 37.829 C 75.745 38.835, 75.014 40.072, 75.032 40.579 C 75.049 41.085, 75.660 40.714, 76.390 39.753 C 77.119 38.793, 79.083 37.733, 80.754 37.399 C 84.416 36.667, 88 39.649, 88 43.427 C 88 45.864, 83.909 50, 81.500 50 C 80.823 50, 79.084 49.067, 77.635 47.927 C 76.186 46.788, 75 46.326, 75 46.902 C 75 48.145, 80.222 51, 82.496 51 C 85.118 51, 89 46.365, 89 43.234 C 89 37.104, 80.628 33.439, 76.655 37.829 M 34.762 38.073 C 30.351 40.643, 30.271 46.891, 34.624 48.875 C 38.129 50.471, 39.717 50.283, 42 48 C 47.180 42.820, 41.049 34.411, 34.762 38.073 M 9.356 51 C 9.488 63.402, 9.704 64.864, 12.003 68.970 C 14.276 73.029, 20.671 78.018, 23.500 77.939 C 24.050 77.924, 22.724 76.976, 20.554 75.831 C 12.319 71.490, 10.879 68.120, 9.947 51 L 9.212 37.500 9.356 51 M 122.415 59 C 122.415 69.175, 122.564 73.337, 122.745 68.250 C 122.927 63.162, 122.927 54.837, 122.745 49.750 C 122.564 44.662, 122.415 48.825, 122.415 59 M 52.102 42.685 C 51.866 45.427, 54.153 49.108, 56.693 50.073 C 59.669 51.205, 64 50.552, 64 48.972 C 64 48.386, 63.232 48.463, 62.115 49.160 C 59.189 50.988, 54.494 48.621, 53.227 44.680 C 52.664 42.931, 52.158 42.033, 52.102 42.685 M 74.079 43.583 C 74.127 44.748, 74.364 44.985, 74.683 44.188 C 74.972 43.466, 74.936 42.603, 74.604 42.271 C 74.272 41.939, 74.036 42.529, 74.079 43.583 M 132.378 66 C 132.378 72.325, 132.541 74.912, 132.739 71.750 C 132.937 68.587, 132.937 63.412, 132.739 60.250 C 132.541 57.087, 132.378 59.675, 132.378 66 M 26.500 78.919 C 28.337 79.634, 28.541 80.871, 29 94.087 C 29.440 106.750, 29.709 108.517, 31.246 108.811 C 32.378 109.027, 36.600 105.538, 43.246 98.894 C 48.886 93.255, 52.150 89.826, 50.500 91.272 C 48.850 92.719, 44.211 97.103, 40.191 101.015 C 36.171 104.927, 32.346 107.949, 31.691 107.732 C 30.859 107.455, 30.417 102.913, 30.223 92.668 L 29.947 78 27.223 78.070 C 24.855 78.131, 24.761 78.242, 26.500 78.919 M 130.776 80.500 C 130.426 82.150, 129.877 84.400, 129.555 85.500 C 129.234 86.600, 129.675 85.985, 130.536 84.133 C 131.397 82.281, 131.946 80.031, 131.756 79.133 C 131.557 78.189, 131.143 78.765, 130.776 80.500 M 120.319 81.965 C 119.479 84.192, 118.329 85.184, 116.063 85.637 C 114.355 85.979, 112.753 86.591, 112.501 86.998 C 112.249 87.405, 113.455 87.450, 115.181 87.097 C 118.412 86.436, 122.531 82.093, 121.853 80.060 C 121.643 79.430, 120.953 80.287, 120.319 81.965 M 57.405 83.250 L 55.500 85.500 57.750 83.595 C 58.987 82.547, 60 81.535, 60 81.345 C 60 80.545, 59.195 81.136, 57.405 83.250 M 57.453 91.244 C 53.717 95.254, 53.691 95.323, 56.984 92.494 C 58.900 90.847, 60.700 89.230, 60.984 88.900 C 61.268 88.570, 62.175 88.043, 63 87.729 C 64.304 87.232, 64.298 87.148, 62.953 87.079 C 62.102 87.036, 59.627 88.910, 57.453 91.244 M 84.302 95.500 C 92.600 104.005, 95.013 105.530, 94.985 102.250 C 94.972 100.780, 94.820 100.736, 94.038 101.973 C 93.298 103.142, 91.528 101.748, 85.466 95.223 C 81.265 90.700, 77.418 87, 76.918 87 C 76.419 87, 79.742 90.825, 84.302 95.500 M 125.437 91.250 L 122.500 94.500 125.750 91.563 C 128.779 88.825, 129.460 88, 128.687 88 C 128.515 88, 127.052 89.463, 125.437 91.250 M 120 95.059 C 120 95.641, 120.450 95.840, 121 95.500 C 121.550 95.160, 122 94.684, 122 94.441 C 122 94.198, 121.550 94, 121 94 C 120.450 94, 120 94.477, 120 95.059 M 115.333 96.667 C 115.700 97.033, 116.300 97.033, 116.667 96.667 C 117.033 96.300, 116.733 96, 116 96 C 115.267 96, 114.967 96.300, 115.333 96.667 M 74.500 99 C 75.495 100.100, 76.535 101, 76.810 101 C 77.085 101, 76.495 100.100, 75.500 99 C 74.505 97.900, 73.465 97, 73.190 97 C 72.915 97, 73.505 97.900, 74.500 99 M 94.079 98.583 C 94.127 99.748, 94.364 99.985, 94.683 99.188 C 94.972 98.466, 94.936 97.603, 94.604 97.271 C 94.272 96.939, 94.036 97.529, 94.079 98.583 M 104.333 97.667 C 104.700 98.033, 105.300 98.033, 105.667 97.667 C 106.033 97.300, 105.733 97, 105 97 C 104.267 97, 103.967 97.300, 104.333 97.667 M 104.310 106.500 C 104.315 109.800, 104.502 111.029, 104.725 109.232 C 104.947 107.435, 104.943 104.735, 104.715 103.232 C 104.486 101.729, 104.304 103.200, 104.310 106.500 M 89.809 114.094 C 97.724 121.707, 100.149 122.441, 102.715 118 C 104.155 115.508, 104.154 115.508, 102.458 117.750 C 101.522 118.987, 99.908 120, 98.870 120 C 97.833 120, 94.016 117.075, 90.388 113.500 C 86.760 109.925, 83.501 107.014, 83.146 107.032 C 82.791 107.049, 85.789 110.227, 89.809 114.094" stroke="none" fill="#ec8979" fill-rule="evenodd"/><path d="M 20.025 12.345 C 16.676 14.057, 14.915 15.868, 13.025 19.539 C 10.572 24.305, 10.500 25.019, 10.500 44.473 C 10.500 62.182, 10.718 64.899, 12.380 67.951 C 13.413 69.849, 14.792 71.935, 15.442 72.585 C 17.562 74.705, 24.859 78, 27.433 78 L 29.947 78 30.223 92.668 C 30.432 103.744, 30.824 107.443, 31.821 107.775 C 32.557 108.020, 39.740 101.518, 48.025 93.107 L 62.906 78 76.404 78 C 97.013 78, 102.266 76.261, 106.615 68 C 108.164 65.057, 108.517 61.556, 108.830 46 C 109.334 20.978, 107.999 15.637, 100.240 11.624 C 97.508 10.211, 92.379 10.004, 60.800 10.028 C 24.973 10.056, 24.442 10.086, 20.025 12.345 M 96.333 12.667 C 96.700 13.033, 97.300 13.033, 97.667 12.667 C 98.033 12.300, 97.733 12, 97 12 C 96.267 12, 95.967 12.300, 96.333 12.667 M 115 28.052 C 115 31.676, 115.324 32.217, 118.071 33.175 C 119.761 33.764, 121.524 35.248, 121.990 36.473 C 123.148 39.519, 123.209 74.563, 122.065 79.401 C 120.424 86.339, 118.858 87.107, 105.906 87.316 L 94.500 87.500 94.675 95.750 C 94.792 101.308, 94.481 104, 93.722 104 C 93.102 104, 88.870 100.182, 84.318 95.516 L 76.042 87.033 69.240 87.273 C 62.864 87.499, 62.174 87.758, 58.219 91.418 C 55.899 93.565, 54 95.699, 54 96.161 C 54 96.622, 58.389 97, 63.752 97 L 73.505 97 85.263 108.500 C 91.799 114.892, 97.854 120, 98.896 120 C 102.439 120, 104 115.773, 104 106.180 L 104 97.289 111.730 96.704 C 115.982 96.383, 119.619 95.643, 119.813 95.060 C 120.008 94.477, 120.716 94, 121.387 94 C 124.016 94, 128.870 87.390, 130.566 81.500 C 132.066 76.290, 132.206 72.758, 131.627 54.662 C 131.121 38.845, 130.588 33.103, 129.414 30.833 C 127.798 27.709, 121.285 24.061, 117.250 24.022 C 115.283 24.003, 115 24.510, 115 28.052 M 33.881 37.007 C 30.976 38.704, 29.632 43.461, 31.160 46.639 C 34.411 53.405, 44.157 51.312, 44.807 43.708 C 45.321 37.692, 39.168 33.918, 33.881 37.007 M 55.807 36.678 C 53.375 37.320, 51.688 43.049, 52.952 46.374 C 53.889 48.838, 57.374 51, 60.410 51 C 63.160 51, 67 46.489, 67 43.257 C 67 37.789, 62.230 34.985, 55.807 36.678 M 76.807 37.750 C 73.098 42.069, 73.652 47.251, 78.068 49.535 C 82.014 51.576, 83.714 51.377, 86.545 48.545 C 89.564 45.527, 89.739 41.170, 86.961 38.189 C 84.443 35.486, 78.955 35.249, 76.807 37.750" stroke="none" fill="#f96a52" fill-rule="evenodd"/></svg>