<svg xmlns="http://www.w3.org/2000/svg" width="160" height="120" viewBox="0 0 160 120" version="1.1"><path d="M 54.762 18.883 C 34.189 25.670, 24.651 42.295, 31.910 58.714 C 34.030 63.509, 40.919 71.176, 45.321 73.640 C 46.824 74.481, 47.217 76.485, 47.710 85.823 C 48.034 91.971, 48.404 97, 48.531 97 C 48.658 97, 52.495 93.175, 57.058 88.500 C 61.621 83.825, 66.075 80, 66.954 80 C 67.834 80, 70.941 81.793, 73.858 83.985 C 80.051 88.639, 87.136 91, 94.908 91 C 100.444 91, 100.465 91.012, 107.612 98.111 L 114.770 105.222 115.493 96.084 L 116.217 86.947 120.509 83.994 C 128.507 78.491, 132.241 66.298, 128.597 57.578 C 126.583 52.758, 120.708 46.623, 116.129 44.558 C 113.039 43.165, 111.827 41.836, 110.516 38.402 C 108.035 31.906, 101.195 25.469, 92.268 21.230 C 84.923 17.741, 84.034 17.564, 72.538 17.283 C 62.842 17.047, 59.384 17.358, 54.762 18.883 M 56.487 23.746 C 37.857 30.384, 29.871 43.908, 36.641 57.355 C 38.880 61.804, 43.861 66.846, 48.250 69.108 C 51.646 70.858, 52.011 71.440, 52.118 75.270 C 52.183 77.597, 52.521 80.826, 52.869 82.447 L 53.501 85.393 58.001 80.329 L 62.500 75.265 71.668 74.649 C 92.798 73.230, 107.231 62.451, 107.231 48.090 C 107.231 38.907, 101.103 30.919, 90 25.630 C 84.144 22.841, 82.409 22.506, 72.500 22.247 C 63.924 22.023, 60.395 22.354, 56.487 23.746 M 47 45 C 43.294 48.706, 44.988 54.285, 50.200 55.541 C 52.293 56.045, 53.472 55.619, 55.450 53.641 C 56.852 52.239, 58 50.170, 58 49.045 C 58 46.234, 54.523 43, 51.500 43 C 50.125 43, 48.100 43.900, 47 45 M 67.073 45.635 C 65.933 47.084, 65 48.904, 65 49.680 C 65 51.799, 69.623 56, 71.955 56 C 74.887 56, 78 52.476, 78 49.155 C 78 43.159, 70.836 40.851, 67.073 45.635 M 85.055 45.657 C 83.721 47.353, 83.184 49.071, 83.569 50.407 C 84.355 53.128, 87.714 56, 90.111 56 C 92.906 56, 96 52.403, 96 49.155 C 96 43.142, 88.835 40.852, 85.055 45.657 M 112.429 50.750 C 110.253 60.580, 106.526 66.238, 98.775 71.481 C 93.193 75.258, 82.771 79, 77.836 79 C 73.893 79, 74.961 80.435, 81.321 83.683 C 85.248 85.688, 88.433 86.435, 94.500 86.771 C 102.221 87.199, 102.644 87.353, 106.614 91.182 C 111.197 95.602, 112 95.137, 112 88.068 C 112 84.642, 112.442 84.024, 116.844 81.288 C 128.172 74.246, 128.949 60.309, 118.524 51.155 C 114.123 47.291, 113.209 47.230, 112.429 50.750" stroke="none" fill="#0448a0" fill-rule="evenodd"/></svg>